<?xml version="1.0" standalone="no"?>
<!DOCTYPE svg PUBLIC "-//W3C//DTD SVG 20010904//EN"
 "http://www.w3.org/TR/2001/REC-SVG-20010904/DTD/svg10.dtd">
<svg version="1.0" xmlns="http://www.w3.org/2000/svg"
 width="256.000000pt" height="256.000000pt" viewBox="0 0 256.000000 256.000000"
 preserveAspectRatio="xMidYMid meet">
<metadata>
Created by potrace 1.11, written by Peter Selinger 2001-2013
</metadata>
<g transform="translate(0.000000,256.000000) scale(0.100000,-0.100000)"
fill="#000000" stroke="none">
<path d="M1736 2544 c-9 -8 -16 -17 -16 -19 0 -2 16 -68 35 -147 42 -169 41
-164 65 -298 25 -143 27 -158 42 -290 12 -115 12 -115 93 -275 170 -334 303
-703 370 -1025 21 -101 45 -238 51 -288 4 -34 8 -61 11 -59 17 18 92 430 113
622 5 55 13 123 16 150 9 82 12 552 3 655 -14 180 -20 235 -24 265 -2 17 -9
66 -15 110 -23 163 -92 486 -120 560 -19 51 -47 55 -339 55 -232 0 -272 -2
-285 -16z"/>
<path d="M930 2099 c0 -4 29 -53 63 -110 64 -105 73 -120 175 -304 175 -315
341 -713 426 -1021 57 -206 114 -524 116 -641 l0 -23 321 0 320 0 -6 63 c-34
349 -159 834 -290 1122 -7 17 -34 77 -60 135 -90 203 -239 469 -373 665 -41
61 -77 112 -79 115 -7 8 -613 7 -613 -1z"/>
<path d="M920 2000 c-4 -151 -17 -304 -46 -507 l-16 -112 56 -98 c118 -209
226 -461 277 -646 13 -48 26 -87 29 -87 11 0 107 281 148 435 l29 110 -72 161
c-79 178 -186 385 -292 569 -98 169 -113 192 -113 175z"/>
<path d="M92 1603 c-4 -1 -19 -4 -34 -7 -50 -11 -44 -38 28 -138 182 -254 348
-597 446 -920 l23 -78 318 0 c299 0 318 1 313 18 -3 9 -17 58 -31 109 -60 218
-177 493 -292 688 -87 147 -199 305 -223 315 -20 8 -515 20 -548 13z"/>
</g>
</svg>
